<?xml version="1.0" standalone="no"?>
<!DOCTYPE svg PUBLIC "-//W3C//DTD SVG 20010904//EN"
 "http://www.w3.org/TR/2001/REC-SVG-20010904/DTD/svg10.dtd">
<svg version="1.0" xmlns="http://www.w3.org/2000/svg"
 width="100%" height="auto" viewBox="0 0 1022.000000 627.000000"
 preserveAspectRatio="xMidYMid meet">
<metadata>
Created by potrace 1.16, written by Peter Selinger 2001-2019
</metadata>
<g transform="translate(0.000000,627.000000) scale(0.100000,-0.100000)"
fill="#586a6c" stroke="none">
<path  d="M2900 5927 c0 -29 -57 -126 -125 -211 -50 -62 -54 -72 -60 -134 -10
-110 -45 -403 -51 -426 -3 -13 -27 -33 -60 -50 -226 -118 -471 -426 -563 -708
-15 -44 -27 -65 -35 -62 -22 8 -39 -136 -40 -326 l0 -175 32 -66 c18 -36 32
-73 32 -82 0 -13 6 -15 30 -10 25 5 30 2 30 -14 0 -47 44 -55 120 -22 l49 21
31 93 c23 70 38 98 57 111 27 17 27 17 60 -22 18 -21 33 -43 33 -48 0 -4 11
-5 25 -2 22 6 24 4 16 -16 -6 -16 -4 -31 7 -49 14 -26 14 -27 -44 -85 -86 -86
-160 -177 -222 -274 -30 -47 -69 -107 -87 -135 -77 -120 -154 -364 -185 -585
-15 -102 -12 -465 3 -510 3 -8 10 -44 17 -80 18 -104 81 -306 98 -320 10 -8
93 -181 98 -204 2 -11 8 -24 14 -30 8 -8 -7 -14 -51 -21 l-62 -10 -18 -105
c-22 -130 -58 -247 -115 -368 -46 -98 -151 -266 -215 -343 -22 -26 -39 -54
-39 -63 0 -19 39 -128 51 -140 5 -5 27 12 52 40 253 281 387 531 443 822 l18
91 41 -59 c69 -98 220 -248 314 -313 25 -17 54 -39 65 -49 34 -31 311 -167
415 -203 126 -44 214 -63 335 -71 71 -5 99 -4 111 6 13 11 15 197 15 1685 0
1488 -2 1674 -15 1685 -21 17 -176 6 -304 -21 -194 -42 -473 -159 -574 -240
l-38 -30 -19 23 c-11 13 -19 26 -20 30 0 8 55 48 66 48 4 0 15 6 23 14 9 8 68
37 131 66 63 29 129 58 145 66 40 18 253 84 272 84 8 0 29 6 46 14 18 8 61 22
97 32 60 17 141 19 1000 24 l935 5 96 35 c108 40 226 105 295 161 25 22 51 39
58 39 35 0 219 237 241 310 4 13 16 36 26 50 33 46 98 318 99 411 0 20 -6 42
-14 48 -10 8 -413 11 -1552 9 l-1539 -3 -64 -22 c-36 -12 -66 -21 -67 -20 -2
1 6 78 16 171 20 174 38 556 27 556 -4 0 -7 -10 -7 -23z"/>

<path  d="M1526 5248 c39 -216 116 -370 176 -354 53 14 52 18 -25 142 -41 65
-89 145 -107 176 -39 70 -52 80 -44 36z"/>
<path d="M3634 4085 c-4 -9 -19 -15 -40 -15 l-34 0 0 -580 0 -580 28 0 c19 0
30 -7 37 -22 9 -22 16 -23 100 -21 167 2 395 63 577 153 382 188 656 504 793
912 40 120 41 130 19 152 -14 14 -95 16 -745 16 -639 0 -730 -2 -735 -15z"/>
<path  d="M5246 4085 c-15 -8 -41 -15 -58 -15 l-29 0 4 -632 c3 -545 5 -640 19
-685 46 -151 117 -229 283 -315 177 -91 349 -126 559 -115 283 16 502 129 586
301 65 134 64 119 68 806 2 537 1 628 -12 645 -13 19 -28 20 -215 23 -167 3
-207 0 -233 -12 -17 -9 -44 -16 -59 -16 l-28 0 -3 -577 c-3 -637 -2 -626 -66
-672 -61 -43 -167 -18 -207 49 -19 34 -20 55 -25 620 l-5 584 -25 13 c-39 20
-515 18 -554 -2z"/>
<path  d="M6896 4085 c-15 -8 -41 -15 -57 -15 l-29 0 0 -835 0 -835 30 0 c17 0
30 -4 30 -9 0 -5 7 -17 16 -25 14 -14 83 -16 614 -16 l600 0 15 24 c14 21 16
56 13 229 -2 155 -6 208 -17 220 -12 15 -48 17 -327 17 l-314 0 0 608 c0 509
-2 611 -14 628 -13 18 -30 19 -273 22 -215 2 -263 0 -287 -13z"/>
<path d="M8236 4085 c-15 -8 -41 -15 -57 -15 l-29 0 0 -835 0 -835 30 0 c17 0
30 -4 30 -9 0 -5 7 -17 16 -25 14 -14 83 -16 614 -16 l600 0 15 24 c14 21 16
56 13 229 -2 155 -6 208 -17 220 -12 15 -48 17 -327 17 l-314 0 0 608 c0 509
-2 611 -14 628 -13 18 -30 19 -273 22 -215 2 -263 0 -287 -13z"/>
</g>


<g transform="translate(0.000000,627.000000) scale(0.100000,-0.100000)" fill="#a6e65a" stroke="none">
<path  d="M6030 2226 c-44 -13 -42 -13 71 -17 109 -4 119 -6 191 -41 160 -79
238 -219 238 -423 -1 -192 -62 -349 -184 -470 -114 -113 -218 -151 -385 -142
-53 2 -105 8 -116 11 -11 4 -3 -2 17 -13 127 -71 332 -68 486 7 70 33 186 147
225 220 42 78 102 433 86 512 -34 171 -166 312 -333 356 -63 17 -235 17 -296
0z"/>
<path  d="M4060 2217 c-43 -11 -39 -12 85 -17 95 -5 145 -12 187 -27 67 -25
135 -70 172 -114 24 -28 66 -100 66 -113 0 -2 -51 -17 -114 -32 -112 -27 -114
-28 -103 -51 6 -13 21 -26 34 -29 25 -7 279 52 301 69 42 33 -19 156 -114 228
-96 72 -162 91 -329 95 -85 2 -158 -2 -185 -9z"/>
<path  d="M8790 2217 c-43 -11 -39 -12 85 -17 95 -5 145 -12 187 -27 67 -25
135 -70 172 -114 24 -28 66 -100 66 -113 0 -2 -51 -17 -114 -32 -112 -27 -114
-28 -103 -51 6 -13 21 -26 34 -29 25 -7 279 52 301 69 42 33 -19 156 -114 228
-96 72 -162 91 -329 95 -85 2 -158 -2 -185 -9z"/>
<path  d="M4830 2208 c-21 -10 15 -13 205 -18 218 -6 233 -8 286 -32 76 -34
123 -79 156 -146 24 -49 28 -69 27 -137 -2 -144 -64 -249 -181 -307 -66 -33
-70 -33 -225 -36 -87 -2 -158 -6 -158 -9 0 -7 -49 -302 -56 -335 l-6 -28 -124
0 c-70 0 -124 -4 -124 -9 0 -5 7 -17 16 -25 13 -13 44 -16 184 -16 151 0 170
2 178 18 5 9 22 92 38 183 l28 167 146 4 c133 3 150 6 205 31 33 16 72 40 88
54 23 23 27 35 27 83 0 71 30 191 65 260 31 61 28 82 -17 152 -36 57 -92 100
-168 130 -50 19 -78 21 -310 25 -185 2 -262 0 -280 -9z"/>
<path  d="M6820 2207 c-20 -9 25 -13 230 -18 303 -7 335 -14 417 -94 39 -38 55
-63 67 -104 30 -102 14 -219 -39 -291 -23 -31 -115 -102 -146 -112 -9 -3 2
-61 39 -204 29 -110 52 -206 52 -212 0 -9 -36 -12 -125 -12 -100 0 -125 -3
-125 -14 0 -32 26 -37 200 -34 151 3 174 5 184 20 8 14 0 62 -37 210 -26 106
-47 198 -47 203 0 6 16 19 35 29 48 26 113 98 137 153 11 24 22 78 25 119 4
53 9 72 16 65 6 -6 39 -11 73 -11 47 0 63 4 68 16 12 32 5 35 -76 34 -46 -1
-96 -1 -111 -1 l-28 1 7 59 c6 57 5 59 -30 98 -43 48 -127 88 -216 102 -90 15
-538 13 -570 -2z"/>
<path  d="M7753 2213 c-47 -18 21 -23 327 -23 336 0 340 0 340 -20 0 -12 -7
-66 -17 -120 l-16 -100 -113 0 c-99 0 -113 -2 -118 -17 -2 -10 -33 -188 -67
-395 l-62 -378 -124 0 c-94 0 -123 -3 -123 -13 0 -32 24 -37 192 -37 163 0
168 1 182 23 10 16 136 720 136 761 0 3 32 6 72 8 l72 3 8 38 c11 51 40 105
82 150 42 45 50 99 17 117 -20 10 -763 14 -788 3z"/>
<path  d="M4073 1961 c-29 -13 -38 -47 -19 -75 10 -16 47 -35 123 -61 159 -55
206 -79 257 -125 71 -65 89 -113 84 -218 -3 -64 -10 -98 -27 -131 -51 -99
-174 -180 -306 -202 -82 -14 -239 -6 -309 15 -63 19 -48 4 24 -24 224 -88 499
-56 638 74 l49 46 28 169 c15 93 25 180 22 193 -9 35 -70 101 -126 137 -27 18
-107 52 -177 77 -166 58 -188 77 -99 86 l30 3 -29 19 c-32 22 -127 32 -163 17z"/>
<path  d="M6032 1963 c-64 -12 -115 -108 -147 -277 -29 -153 -17 -253 37 -290
28 -20 116 -21 141 -2 16 13 16 14 -6 20 -39 9 -51 53 -44 159 11 163 57 296
114 329 42 25 42 35 -2 54 -34 14 -50 15 -93 7z"/>
<path  d="M8803 1961 c-29 -13 -38 -47 -19 -75 10 -16 47 -35 123 -61 159 -55
206 -79 257 -125 71 -65 89 -113 84 -218 -3 -64 -10 -98 -27 -131 -51 -99
-174 -180 -306 -202 -82 -14 -239 -6 -309 15 -63 19 -48 4 24 -24 169 -66 386
-65 536 4 72 33 157 115 191 184 20 42 28 74 31 137 10 191 -68 281 -324 371
-166 58 -188 77 -99 86 l30 3 -29 19 c-32 22 -127 32 -163 17z"/>
<path  d="M5001 1883 c-7 -43 -15 -88 -18 -100 -5 -22 -2 -23 48 -23 60 0 146
21 116 28 -16 3 -18 10 -12 55 9 64 12 69 36 62 10 -4 19 -2 19 4 0 18 -52 38
-116 46 l-61 7 -12 -79z"/>
<path  d="M6995 1938 c-9 -41 -25 -141 -25 -155 0 -17 154 -18 201 0 l34 12
-45 5 -45 5 8 52 8 52 52 3 52 3 -35 22 c-29 19 -49 23 -117 23 -78 0 -83 -1
-88 -22z"/>
<path  d="M6925 1518 c-3 -18 -18 -105 -33 -193 l-28 -160 -122 -3 c-67 -1
-122 -7 -122 -12 0 -5 7 -16 16 -24 22 -22 335 -24 353 -2 7 8 25 90 40 181
22 132 26 176 18 206 l-9 39 -54 0 c-52 0 -53 -1 -59 -32z"/>
<path  d="M3807 1490 c-76 -15 -141 -31 -145 -35 -4 -4 2 -5 13 -2 69 20 209
39 213 29 8 -26 48 -66 78 -78 43 -18 154 -18 179 -1 16 13 14 15 -26 20 -36
5 -51 14 -84 51 -47 54 -40 54 -228 16z"/>
<path  d="M8537 1490 c-76 -15 -141 -31 -145 -35 -4 -4 2 -5 13 -2 69 20 209
39 213 29 8 -26 48 -66 78 -78 44 -19 168 -19 183 0 9 11 3 14 -31 19 -35 5
-50 14 -83 51 -47 54 -40 54 -228 16z"/>
</g>

<g transform="translate(0.000000,627.000000) scale(0.100000,-0.100000)"
fill="#5e7b7f" stroke="none">
<path d="M3715 900 c-3 -5 -37 -10 -76 -10 l-69 0 0 -65 0 -65 69 0 c69 0 70
0 73 -27 l3 -28 2355 0 2355 0 3 28 c3 25 7 27 48 27 l44 0 0 65 0 65 -44 0
c-25 0 -48 4 -51 10 -9 14 -4701 14 -4710 0z"/>
<path d="M8544 896 c-3 -7 -4 -53 -2 -102 l3 -89 500 0 500 0 0 100 0 100
-498 2 c-397 2 -499 -1 -503 -11z"/>
</g>

</svg>
