<?xml version="1.0" encoding="utf-8"?>
<!-- Generator: Adobe Illustrator 26.3.1, SVG Export Plug-In . SVG Version: 6.00 Build 0)  -->
<svg version="1.1" xmlns="http://www.w3.org/2000/svg" xmlns:xlink="http://www.w3.org/1999/xlink" x="0px" y="0px"
	 viewBox="0 0 595.28 841.89" style="enable-background:new 0 0 595.28 841.89;" xml:space="preserve">
<style type="text/css">
	.Separador_x0020_texto_x0020_legenda_x0020_1{opacity:0.8;fill:none;stroke:#007CB0;stroke-width:0.227;stroke-miterlimit:10;}
	.st0{fill:#006583;stroke:#FFFFFF;stroke-miterlimit:10;}
	.st1{fill:#006583;}
	.st2{clip-path:url(#SVGID_00000152944772205651976410000009932307361310494639_);}
	.st3{fill:#E41D27;}
	.st4{fill:#EE7510;}
	.st5{fill:#F3E728;}
	.st6{fill:#217236;}
	.st7{fill:#265FAA;}
	.st8{fill:#7E3F91;}
	
		.st9{clip-path:url(#SVGID_00000152944772205651976410000009932307361310494639_);fill:none;stroke:#FFFFFF;stroke-width:1.4173;stroke-miterlimit:10;}
	.st10{clip-path:url(#SVGID_00000114782369982135112950000017624692896125791390_);}
	
		.st11{clip-path:url(#SVGID_00000114782369982135112950000017624692896125791390_);fill:none;stroke:#FFFFFF;stroke-width:1.7965;stroke-miterlimit:10;}
	.st12{clip-path:url(#SVGID_00000166641327405744850630000017080849359371153589_);}
	
		.st13{clip-path:url(#SVGID_00000166641327405744850630000017080849359371153589_);fill:none;stroke:#FFFFFF;stroke-width:1.6235;stroke-miterlimit:10;}
	.st14{clip-path:url(#SVGID_00000076592941530479273600000006773072241880369072_);}
	
		.st15{clip-path:url(#SVGID_00000076592941530479273600000006773072241880369072_);fill:none;stroke:#FFFFFF;stroke-width:1.5003;stroke-miterlimit:10;}
</style>
<g id="Cabeçalho">
</g>
<g id="Foreground">
	<g id="MAPA_QUADRADO">
	</g>
	<g id="Arte_legenda_1">
	</g>
	<g>
		<path d="M345.1,213.34v-2.53h-9.4v-6.51h7.23v-2.17h-7.23v-5.79h9.04v-2.53h-11.94v19.53H345.1 M359.21,207.55l-2.89-0.72
			c-0.36,2.89-1.45,4.34-3.62,4.34c-2.89,0-4.34-2.89-4.34-6.87v-1.45c0-3.98,1.45-6.87,4.34-6.87c1.81,0,2.89,1.44,3.62,3.98
			l2.89-0.72c-0.73-3.26-2.89-5.78-6.51-5.78c-4.7,0-7.23,3.61-7.23,9.76v0.72c0,6.15,2.53,9.4,6.88,9.4
			C356.32,213.33,358.48,211.17,359.21,207.55 M371.5,204.29c0,3.98-1.08,6.87-3.98,6.87c-2.89,0-3.98-2.89-3.98-6.87v-1.44
			c0-4.34,1.08-6.87,3.98-6.87c2.89,0,3.98,2.53,3.98,6.87V204.29z M374.76,203.93v-0.72c0-6.15-2.54-9.77-7.23-9.77
			c-4.34,0-7.23,3.62-7.23,9.77v0.72c0,6.15,2.89,9.4,7.23,9.4C372.22,213.34,374.76,210.08,374.76,203.93 M390.66,213.34v-19.53
			h-2.89v14.47l-7.23-14.47h-3.61v19.53h2.89v-14.83h0.36l7.23,14.83H390.66z M404.05,204.29c0,3.98-1.09,6.87-3.99,6.87
			s-3.98-2.89-3.98-6.87v-1.44c0-4.34,1.09-6.87,3.98-6.87s3.99,2.53,3.99,6.87V204.29z M407.3,203.93v-0.72
			c0-6.15-2.89-9.77-7.23-9.77c-4.34,0-7.23,3.62-7.23,9.77v0.72c0,6.15,2.89,9.4,7.23,9.4C404.41,213.34,407.3,210.08,407.3,203.93
			 M404.41,192.72l-3.25-4.34h-2.17l-3.26,4.34h1.45l2.89-2.53l2.89,2.53H404.41z M428.64,213.34v-19.53h-4.7l-4.7,15.55l-4.7-15.55
			h-5.06v19.53h2.89v-16.27l5.06,16.27h3.26l5.06-16.27v16.27H428.64z M439.49,213.34v-1.45h-2.89v-16.63h2.88v-1.45h-8.68v1.45h2.9
			v16.63h-2.9v1.45H439.49z M454.31,207.55l-2.89-0.72c-0.36,2.89-1.45,4.34-3.62,4.34c-2.89,0-3.98-2.89-3.98-6.87v-1.45
			c0-3.98,1.08-6.87,3.98-6.87c2.17,0,2.89,1.44,3.62,3.98l2.89-0.72c-0.72-3.26-2.53-5.78-6.51-5.78c-4.34,0-7.23,3.61-7.23,9.76
			v0.72c0,6.15,2.89,9.4,7.23,9.4C451.43,213.33,453.59,211.17,454.31,207.55 M466.98,204.29c0,3.98-1.46,6.87-4.34,6.87
			c-2.54,0-3.98-2.89-3.98-6.87v-1.44c0-4.34,1.45-6.87,3.98-6.87c2.89,0,4.34,2.53,4.34,6.87V204.29z M470.22,203.93v-0.72
			c0-6.15-2.89-9.77-7.59-9.77c-4.34,0-7.23,3.62-7.23,9.77v0.72c0,6.15,2.89,9.4,7.23,9.4
			C467.33,213.34,470.22,210.08,470.22,203.93"/>
		<g>
			<path class="st0" d="M403.68,288.55c0-27.12-4.34-39.05-10.84-43.76c-2.9-2.17-7.6-3.26-11.95-3.26c-4.34,0-9.4,1.09-11.93,3.26
				c-6.51,4.7-10.85,16.63-10.85,43.76c0,27.48,4.34,38.69,10.85,43.4c2.53,1.81,7.59,3.25,11.93,3.25c4.35,0,9.04-1.44,11.95-3.25
				C399.34,327.25,403.68,316.04,403.68,288.55 M380.9,339.18c-29.29,0-49.54-19.89-49.54-50.63c0-30.74,20.24-50.99,49.54-50.99
				c29.29,0,49.55,20.25,49.55,50.99C430.45,319.3,410.19,339.18,380.9,339.18"/>
			<path class="st1" d="M446,243.71c0-0.36,0-0.72-0.36-0.72h-15.18c-0.36,0-0.36,0-0.36-0.36v-2.9c0-0.36,0-0.72,0.36-0.72h26.39
				c4.35,0,9.77-0.36,11.94-0.36c0.72,0,0.72,0.36,0.72,0.72v19.89h0.73c4.7-11.21,14.46-21.69,29.29-21.69
				c14.47,0,18.8,8.67,18.8,17.35c0,9.77-3.97,14.11-13.02,14.11c-7.95,0-12.28-4.71-12.28-12.3c0-5.06,1.44-8.68,1.44-11.57
				c0-1.45-1.08-1.81-2.89-1.81c-5.06,0-10.48,6.15-14.47,11.57c-3.62,4.7-6.87,14.11-6.87,28.21v49.54c0,0.36,0.36,0.73,0.36,0.73
				h15.55c0.36,0,0.72,0.36,0.72,0.36v3.26c0,0.36-0.35,0.36-0.72,0.36h-55.69c-0.36,0-0.72,0-0.72-0.36v-3.26
				c0,0,0.35-0.36,0.72-0.36h15.18c0.36,0,0.36-0.36,0.36-0.73V243.71z"/>
			<path class="st1" d="M246.02,278.79c-3.98,1.45-11.57,3.26-18.44,5.07c-11.57,2.89-15.55,9.04-15.55,26.39
				c0,14.1,5.06,23.15,13.38,23.15c13.74,0,20.61-11.94,20.61-22.06V278.79 M317.98,333.03c0,0,0,0.36,0.36,0.36h15.55l0.36,0.36
				v3.25c0,0.36-0.36,0.36-0.36,0.36h-67.26c-15.55,0-19.53-6.51-20.25-12.3h-0.72c-3.98,7.96-13.38,14.11-25.31,14.11
				c-18.44,0-33.99-9.77-33.99-28.93c0-13.75,8.68-24.23,34.72-29.29c6.51-1.09,14.46-3.27,18.8-4.35c5.42-1.45,5.78-2.53,5.78-5.06
				v-9.4c0-14.47-5.42-20.61-18.44-20.61c-6.51,0-10.85,1.81-10.85,7.6c0,4.34,0.72,7.95,0.72,11.21c0,6.51-3.98,11.21-12.29,11.21
				c-7.96,0-12.3-5.79-12.3-11.21c0-16.27,18.8-22.78,35.8-22.78c32.18,0,41.95,11.21,41.95,36.88v45.56
				c0,11.22,3.98,13.38,12.29,13.38h10.49c0.36,0,0.73-0.36,0.73-0.36V198.87c0-0.36-0.36-0.72-0.73-0.72h-14.83
				c-0.36,0-0.72,0-0.72-0.36v-2.89c0-0.36,0.36-0.72,0.72-0.72h26.75c4.35,0,9.77-0.36,12.3-0.36c0.36,0,0.72,0.36,0.72,0.73
				V333.03z"/>
			<g>
				<defs>
					<path id="SVGID_1_" d="M403.68,288.55c0-27.12-4.34-39.05-10.84-43.76c-2.9-2.17-7.6-3.26-11.95-3.26
						c-4.34,0-9.4,1.09-11.93,3.26c-6.51,4.7-10.85,16.63-10.85,43.76c0,27.48,4.34,38.69,10.85,43.4
						c2.53,1.81,7.59,3.25,11.93,3.25c4.35,0,9.04-1.44,11.95-3.25C399.34,327.25,403.68,316.04,403.68,288.55 M380.9,339.18
						c-29.29,0-49.54-19.89-49.54-50.63c0-30.74,20.24-50.99,49.54-50.99c29.29,0,49.55,20.25,49.55,50.99
						C430.45,319.3,410.19,339.18,380.9,339.18"/>
				</defs>
				<use xlink:href="#SVGID_1_"  style="overflow:visible;fill:#006583;"/>
				<clipPath id="SVGID_00000093877518204049742080000017681652006126054818_">
					<use xlink:href="#SVGID_1_"  style="overflow:visible;"/>
				</clipPath>
			</g>
			<path class="st1" d="M201.54,201.4c0.72-1.81,1.44-3.25,3.98-3.25h11.93c0.37,0,0.37,0,0.37-0.37v-2.89c0-0.37,0-0.73-0.37-0.73
				h-35.44c-0.36,0-0.72,0.36-0.72,0.73v2.89c0,0.37,0.36,0.37,0.72,0.37h13.38c1.44,0,2.17,0.72,2.17,1.8c0,0.36,0,1.09-0.36,1.81
				l-36.89,98.72h-0.37l-37.24-100.89v-0.72c0-0.36,0.36-0.72,0.72-0.72h14.83c0.36,0,0.72,0,0.72-0.37v-2.89
				c0-0.37-0.36-0.73-0.72-0.73H78.59c-0.36,0-0.72,0.36-0.72,0.73v2.89c0,0.37,0.36,0.37,0.72,0.37h13.02
				c1.08,0,1.44,0.72,1.44,1.44l53.16,137.42c0.36,0.36,0.72,0.73,0.72,0.73h3.62c0.36,0,0.72-0.36,0.72-0.73L201.54,201.4"/>
		</g>
		<g>
			<defs>
				<path id="SVGID_00000052818821781406919350000014977504464445107849_" d="M201.54,201.4c0.72-1.81,1.44-3.25,3.98-3.25h11.93
					c0.37,0,0.37,0,0.37-0.37v-2.89c0-0.37,0-0.73-0.37-0.73h-35.44c-0.36,0-0.72,0.36-0.72,0.73v2.89c0,0.37,0.36,0.37,0.72,0.37
					h13.38c1.44,0,2.17,0.72,2.17,1.8c0,0.36,0,1.09-0.36,1.81l-36.89,98.72h-0.37l-37.24-100.89v-0.72c0-0.36,0.36-0.72,0.72-0.72
					h14.83c0.36,0,0.72,0,0.72-0.37v-2.89c0-0.37-0.36-0.73-0.72-0.73H78.59c-0.36,0-0.72,0.36-0.72,0.73v2.89
					c0,0.37,0.36,0.37,0.72,0.37h13.02c1.08,0,1.44,0.72,1.44,1.44l53.16,137.42c0.36,0.36,0.72,0.73,0.72,0.73h3.62
					c0.36,0,0.72-0.36,0.72-0.73L201.54,201.4"/>
			</defs>
			<clipPath id="SVGID_00000124849187114431305140000007932446125199046320_">
				<use xlink:href="#SVGID_00000052818821781406919350000014977504464445107849_"  style="overflow:visible;"/>
			</clipPath>
			<g style="clip-path:url(#SVGID_00000124849187114431305140000007932446125199046320_);">
				<rect x="71.77" y="237.09" class="st3" width="477.7" height="14.08"/>
				<rect x="71.77" y="251.09" class="st4" width="477.7" height="14.08"/>
				<rect x="71.77" y="265.18" class="st5" width="477.7" height="14.08"/>
				<rect x="71.77" y="279.18" class="st6" width="477.7" height="14.08"/>
				<rect x="71.77" y="293.26" class="st7" width="477.7" height="14.08"/>
				<rect x="71.77" y="307.26" class="st8" width="477.7" height="14.08"/>
			</g>
			
				<rect x="105.89" y="236.81" style="clip-path:url(#SVGID_00000124849187114431305140000007932446125199046320_);fill:none;stroke:#FFFFFF;stroke-width:1.4173;stroke-miterlimit:10;" width="85.02" height="84.26"/>
		</g>
		<g>
			<defs>
				<path id="SVGID_00000134231882244322915550000000655342651204590725_" d="M246.02,278.79c-3.98,1.45-11.57,3.26-18.44,5.07
					c-11.57,2.89-15.55,9.04-15.55,26.39c0,14.1,5.06,23.15,13.38,23.15c13.74,0,20.61-11.94,20.61-22.06V278.79 M317.98,333.03
					c0,0,0,0.36,0.36,0.36h15.55l0.36,0.36v3.25c0,0.36-0.36,0.36-0.36,0.36h-67.26c-15.55,0-19.53-6.51-20.25-12.3h-0.72
					c-3.98,7.96-13.38,14.11-25.31,14.11c-18.44,0-33.99-9.77-33.99-28.93c0-13.75,8.68-24.23,34.72-29.29
					c6.51-1.09,14.46-3.27,18.8-4.35c5.42-1.45,5.78-2.53,5.78-5.06v-9.4c0-14.47-5.42-20.61-18.44-20.61
					c-6.51,0-10.85,1.81-10.85,7.6c0,4.34,0.72,7.95,0.72,11.21c0,6.51-3.98,11.21-12.29,11.21c-7.96,0-12.3-5.79-12.3-11.21
					c0-16.27,18.8-22.78,35.8-22.78c32.18,0,41.95,11.21,41.95,36.88v45.56c0,11.22,3.98,13.38,12.29,13.38h10.49
					c0.36,0,0.73-0.36,0.73-0.36V198.87c0-0.36-0.36-0.72-0.73-0.72h-14.83c-0.36,0-0.72,0-0.72-0.36v-2.89
					c0-0.36,0.36-0.72,0.72-0.72h26.75c4.35,0,9.77-0.36,12.3-0.36c0.36,0,0.72,0.36,0.72,0.73V333.03z"/>
			</defs>
			<clipPath id="SVGID_00000174582666068076031710000008766076526722683573_">
				<use xlink:href="#SVGID_00000134231882244322915550000000655342651204590725_"  style="overflow:visible;"/>
			</clipPath>
			<g style="clip-path:url(#SVGID_00000174582666068076031710000008766076526722683573_);">
				<rect x="71.77" y="237.09" class="st3" width="477.7" height="14.08"/>
				<rect x="71.77" y="251.09" class="st4" width="477.7" height="14.08"/>
				<rect x="71.77" y="265.18" class="st5" width="477.7" height="14.08"/>
				<rect x="71.77" y="279.18" class="st6" width="477.7" height="14.08"/>
				<rect x="71.77" y="293.26" class="st7" width="477.7" height="14.08"/>
				<rect x="71.77" y="307.26" class="st8" width="477.7" height="14.08"/>
			</g>
			
				<rect x="184.28" y="236.81" style="clip-path:url(#SVGID_00000174582666068076031710000008766076526722683573_);fill:none;stroke:#FFFFFF;stroke-width:1.7965;stroke-miterlimit:10;" width="136.6" height="84.26"/>
		</g>
		<g>
			<defs>
				<path id="SVGID_00000065796697522949076350000017530572703107036836_" d="M403.68,288.55c0-27.12-4.34-39.05-10.84-43.76
					c-2.9-2.17-7.6-3.26-11.95-3.26c-4.34,0-9.4,1.09-11.93,3.26c-6.51,4.7-10.85,16.63-10.85,43.76c0,27.48,4.34,38.69,10.85,43.4
					c2.53,1.81,7.59,3.25,11.93,3.25c4.35,0,9.04-1.44,11.95-3.25C399.34,327.25,403.68,316.04,403.68,288.55 M380.9,339.18
					c-29.29,0-49.54-19.89-49.54-50.63c0-30.74,20.24-50.99,49.54-50.99c29.29,0,49.55,20.25,49.55,50.99
					C430.45,319.3,410.19,339.18,380.9,339.18"/>
			</defs>
			<clipPath id="SVGID_00000168832811194721615550000004655747200491581098_">
				<use xlink:href="#SVGID_00000065796697522949076350000017530572703107036836_"  style="overflow:visible;"/>
			</clipPath>
			<g style="clip-path:url(#SVGID_00000168832811194721615550000004655747200491581098_);">
				<rect x="71.77" y="237.09" class="st3" width="477.7" height="14.08"/>
				<rect x="71.77" y="251.09" class="st4" width="477.7" height="14.08"/>
				<rect x="71.77" y="265.18" class="st5" width="477.7" height="14.08"/>
				<rect x="71.77" y="279.18" class="st6" width="477.7" height="14.08"/>
				<rect x="71.77" y="293.26" class="st7" width="477.7" height="14.08"/>
				<rect x="71.77" y="307.26" class="st8" width="477.7" height="14.08"/>
			</g>
			
				<rect x="327.02" y="236.81" style="clip-path:url(#SVGID_00000168832811194721615550000004655747200491581098_);fill:none;stroke:#FFFFFF;stroke-width:1.6235;stroke-miterlimit:10;" width="111.55" height="84.26"/>
		</g>
		<g>
			<defs>
				<path id="SVGID_00000020387210322780422740000015172584012846493057_" d="M446,243.71c0-0.36,0-0.72-0.36-0.72h-15.18
					c-0.36,0-0.36,0-0.36-0.36v-2.9c0-0.36,0-0.72,0.36-0.72h26.39c4.35,0,9.77-0.36,11.94-0.36c0.72,0,0.72,0.36,0.72,0.72v19.89
					h0.73c4.7-11.21,14.46-21.69,29.29-21.69c14.47,0,18.8,8.67,18.8,17.35c0,9.77-3.97,14.11-13.02,14.11
					c-7.95,0-12.28-4.71-12.28-12.3c0-5.06,1.44-8.68,1.44-11.57c0-1.45-1.08-1.81-2.89-1.81c-5.06,0-10.48,6.15-14.47,11.57
					c-3.62,4.7-6.87,14.11-6.87,28.21v49.54c0,0.36,0.36,0.73,0.36,0.73h15.55c0.36,0,0.72,0.36,0.72,0.36v3.26
					c0,0.36-0.35,0.36-0.72,0.36h-55.69c-0.36,0-0.72,0-0.72-0.36v-3.26c0,0,0.35-0.36,0.72-0.36h15.18c0.36,0,0.36-0.36,0.36-0.73
					V243.71z"/>
			</defs>
			<clipPath id="SVGID_00000124140997999471599070000002778322298942812596_">
				<use xlink:href="#SVGID_00000020387210322780422740000015172584012846493057_"  style="overflow:visible;"/>
			</clipPath>
			<g style="clip-path:url(#SVGID_00000124140997999471599070000002778322298942812596_);">
				<rect x="71.77" y="237.09" class="st3" width="477.7" height="14.08"/>
				<rect x="71.77" y="251.09" class="st4" width="477.7" height="14.08"/>
				<rect x="71.77" y="265.18" class="st5" width="477.7" height="14.08"/>
				<rect x="71.77" y="279.18" class="st6" width="477.7" height="14.08"/>
				<rect x="71.77" y="293.26" class="st7" width="477.7" height="14.08"/>
				<rect x="71.77" y="307.26" class="st8" width="477.7" height="14.08"/>
			</g>
			
				<rect x="428.59" y="236.81" style="clip-path:url(#SVGID_00000124140997999471599070000002778322298942812596_);fill:none;stroke:#FFFFFF;stroke-width:1.5003;stroke-miterlimit:10;" width="95.26" height="84.26"/>
		</g>
	</g>
</g>
</svg>
