<?xml version="1.0" standalone="no"?>
<!DOCTYPE svg PUBLIC "-//W3C//DTD SVG 20010904//EN"
 "http://www.w3.org/TR/2001/REC-SVG-20010904/DTD/svg10.dtd">
<svg version="1.0" xmlns="http://www.w3.org/2000/svg"
 width="50.000000pt" height="50.000000pt" viewBox="0 0 47.000000 54.000000"
 preserveAspectRatio="xMidYMid meet">
<metadata>
Created by potrace 1.16, written by Peter Selinger 2001-2019
</metadata>
<g transform="translate(0.000000,54.000000) scale(0.100000,-0.100000)"
fill="#fefefe42" stroke="none">
<path d="M95 510 c-44 -18 -78 -67 -83 -120 -3 -31 -1 -50 6 -50 6 0 39 13 74
30 58 28 71 30 175 30 129 0 156 7 183 52 41 68 41 68 -157 67 -98 0 -187 -4
-198 -9z"/>
<path d="M190 316 l0 -74 38 10 c20 5 51 20 68 33 31 24 67 83 58 97 -3 4 -41
8 -85 8 l-79 0 0 -74z"/>
<path d="M95 361 c-44 -27 -61 -50 -80 -109 -36 -110 23 -228 125 -249 l30 -6
0 192 0 191 -22 0 c-13 0 -36 -8 -53 -19z"/>
</g>
</svg>
